<svg xmlns="http://www.w3.org/2000/svg" width="192" height="192" viewBox="0 0 192 192">
  <rect width="192" height="192" rx="40" fill="#1a1916"/>
  <g transform="translate(96,92)" fill="none" stroke="#7fba8a" stroke-width="5" stroke-linecap="round" stroke-linejoin="round">
    <!-- Heart shape -->
    <path d="M0,38 C-18,28 -38,16 -38,-2 C-38,-18 -28,-30 -16,-30 C-8,-30 -2,-24 0,-18 C2,-24 8,-30 16,-30 C28,-30 38,-18 38,-2 C38,16 18,28 0,38Z"/>
    <!-- Leaf/sprout inside -->
    <path d="M0,8 C0,-2 6,-10 14,-12 C14,-12 12,-2 6,4 C4,6 0,8 0,8Z" fill="#7fba8a" stroke="none" opacity="0.7"/>
    <path d="M0,10 C0,0 -5,-8 -10,-10 C-10,-10 -8,-1 -4,4 C-2,6 0,10 0,10Z" fill="#7fba8a" stroke="none" opacity="0.5"/>
    <!-- Stem -->
    <line x1="0" y1="8" x2="0" y2="20" stroke="#7fba8a" stroke-width="2.5" opacity="0.6"/>
  </g>
</svg>
