<svg xmlns="http://www.w3.org/2000/svg" width="512" height="512" viewBox="0 0 512 512">
  <rect width="512" height="512" rx="100" fill="#1a1916"/>
  <g transform="translate(256,245)" fill="none" stroke="#7fba8a" stroke-width="12" stroke-linecap="round" stroke-linejoin="round">
    <!-- Heart shape -->
    <path d="M0,100 C-48,74 -100,42 -100,-5 C-100,-48 -74,-80 -42,-80 C-21,-80 -5,-64 0,-48 C5,-64 21,-80 42,-80 C74,-80 100,-48 100,-5 C100,42 48,74 0,100Z"/>
    <!-- Leaf/sprout inside -->
    <path d="M0,21 C0,-5 16,-27 37,-32 C37,-32 32,-5 16,11 C11,16 0,21 0,21Z" fill="#7fba8a" stroke="none" opacity="0.7"/>
    <path d="M0,27 C0,0 -13,-21 -27,-27 C-27,-27 -21,-3 -11,11 C-5,16 0,27 0,27Z" fill="#7fba8a" stroke="none" opacity="0.5"/>
    <!-- Stem -->
    <line x1="0" y1="21" x2="0" y2="53" stroke="#7fba8a" stroke-width="6" opacity="0.6"/>
  </g>
</svg>
